<svg xmlns="http://www.w3.org/2000/svg" width="99" height="47" viewBox="0 0 99 47" fill="none">
  <path d="M19.6813 16V4H22.443V6H22.5689C22.7892 5.30729 23.1669 4.77344 23.7019 4.39844C24.2422 4.01823 24.8585 3.82812 25.5509 3.82812C25.7083 3.82812 25.884 3.83594 26.078 3.85156C26.2774 3.86198 26.4426 3.88021 26.5737 3.90625V6.50781C26.4531 6.46615 26.2616 6.42969 25.9994 6.39844C25.7423 6.36198 25.4932 6.34375 25.2519 6.34375C24.7326 6.34375 24.2658 6.45573 23.8514 6.67969C23.4423 6.89844 23.1197 7.20312 22.8836 7.59375C22.6476 7.98438 22.5296 8.4349 22.5296 8.94531V16H19.6813Z" fill="white"/>
  <path d="M31.7273 16.2422C30.9615 16.2422 30.2717 16.1068 29.658 15.8359C29.0495 15.5599 28.567 15.1536 28.2103 14.6172C27.8588 14.0807 27.6831 13.4193 27.6831 12.6328C27.6831 11.9557 27.809 11.3958 28.0608 10.9531C28.3126 10.5104 28.6561 10.1562 29.0915 9.89062C29.5269 9.625 30.0173 9.42448 30.5628 9.28906C31.1136 9.14844 31.6827 9.04688 32.2702 8.98438C32.9783 8.91146 33.5527 8.84635 33.9933 8.78906C34.4339 8.72656 34.7539 8.63281 34.9532 8.50781C35.1578 8.3776 35.26 8.17708 35.26 7.90625V7.85938C35.26 7.27083 35.0843 6.8151 34.7329 6.49219C34.3815 6.16927 33.8753 6.00781 33.2144 6.00781C32.5167 6.00781 31.9633 6.15885 31.5542 6.46094C31.1503 6.76302 30.8776 7.11979 30.7359 7.53125L28.0765 7.15625C28.2863 6.42708 28.6325 5.81771 29.1151 5.32812C29.5977 4.83333 30.1878 4.46354 30.8854 4.21875C31.583 3.96875 32.3541 3.84375 33.1986 3.84375C33.7809 3.84375 34.3605 3.91146 34.9375 4.04688C35.5144 4.18229 36.0416 4.40625 36.5189 4.71875C36.9963 5.02604 37.3792 5.44531 37.6677 5.97656C37.9614 6.50781 38.1083 7.17187 38.1083 7.96875V16H35.3702V14.3516H35.2758C35.1027 14.6849 34.8588 14.9974 34.5441 15.2891C34.2346 15.5755 33.8438 15.8073 33.3717 15.9844C32.9049 16.1562 32.3567 16.2422 31.7273 16.2422ZM32.4669 14.1641C33.0386 14.1641 33.5343 14.0521 33.954 13.8281C34.3736 13.599 34.6962 13.2969 34.9217 12.9219C35.1525 12.5469 35.2679 12.138 35.2679 11.6953V10.2812C35.1787 10.3542 35.0266 10.4219 34.8116 10.4844C34.6018 10.5469 34.3657 10.6016 34.1034 10.6484C33.8412 10.6953 33.5815 10.737 33.3245 10.7734C33.0675 10.8099 32.8446 10.8411 32.6557 10.8672C32.2309 10.9245 31.8506 11.0182 31.5149 11.1484C31.1792 11.2786 30.9143 11.4609 30.7202 11.6953C30.5261 11.9245 30.4291 12.2214 30.4291 12.5859C30.4291 13.1068 30.6205 13.5 31.0034 13.7656C31.3864 14.0312 31.8742 14.1641 32.4669 14.1641Z" fill="white"/>
  <path d="M43.8205 8.96875V16H40.9722V4H43.6946V6.03906H43.8362C44.1142 5.36719 44.5574 4.83333 45.1659 4.4375C45.7796 4.04167 46.5376 3.84375 47.4398 3.84375C48.2738 3.84375 49.0003 4.02083 49.6192 4.375C50.2434 4.72917 50.726 5.24219 51.0669 5.91406C51.4131 6.58594 51.5836 7.40104 51.5784 8.35938V16H48.7301V8.79688C48.7301 7.99479 48.5203 7.36719 48.1007 6.91406C47.6863 6.46094 47.1119 6.23438 46.3776 6.23438C45.8793 6.23438 45.436 6.34375 45.0479 6.5625C44.665 6.77604 44.3634 7.08594 44.1431 7.49219C43.928 7.89844 43.8205 8.39062 43.8205 8.96875Z" fill="white"/>
  <path d="M58.9586 16.2109C58.0092 16.2109 57.1594 15.9687 56.4093 15.4844C55.6592 15 55.0665 14.2969 54.6312 13.375C54.1958 12.4531 53.9781 11.3333 53.9781 10.0156C53.9781 8.68229 54.1984 7.55729 54.639 6.64062C55.0849 5.71875 55.6855 5.02344 56.4408 4.55469C57.1961 4.08073 58.038 3.84375 58.9664 3.84375C59.6746 3.84375 60.2568 3.96354 60.7132 4.20312C61.1695 4.4375 61.5314 4.72135 61.7989 5.05469C62.0665 5.38281 62.2736 5.69271 62.4205 5.98438H62.5385V0H65.3946V16H62.5936V14.1094H62.4205C62.2736 14.401 62.0612 14.7109 61.7832 15.0391C61.5052 15.362 61.138 15.638 60.6817 15.8672C60.2253 16.0964 59.651 16.2109 58.9586 16.2109ZM59.7533 13.8906C60.3565 13.8906 60.8705 13.7292 61.2954 13.4062C61.7203 13.0781 62.0428 12.6224 62.2632 12.0391C62.4835 11.4557 62.5936 10.776 62.5936 10C62.5936 9.22396 62.4835 8.54948 62.2632 7.97656C62.0481 7.40365 61.7281 6.95833 61.3032 6.64062C60.8836 6.32292 60.367 6.16406 59.7533 6.16406C59.1186 6.16406 58.5888 6.32812 58.1639 6.65625C57.739 6.98438 57.4191 7.4375 57.204 8.01562C56.9889 8.59375 56.8814 9.25521 56.8814 10C56.8814 10.75 56.9889 11.4193 57.204 12.0078C57.4243 12.5911 57.7469 13.0521 58.1718 13.3906C58.6019 13.724 59.1291 13.8906 59.7533 13.8906Z" fill="white"/>
  <path d="M73.7013 16.2344C72.5211 16.2344 71.4983 15.9766 70.6328 15.4609C69.7673 14.9453 69.0959 14.224 68.6186 13.2969C68.1465 12.3698 67.9104 11.2865 67.9104 10.0469C67.9104 8.80729 68.1465 7.72135 68.6186 6.78906C69.0959 5.85677 69.7673 5.13281 70.6328 4.61719C71.4983 4.10156 72.5211 3.84375 73.7013 3.84375C74.8815 3.84375 75.9044 4.10156 76.7698 4.61719C77.6353 5.13281 78.3041 5.85677 78.7762 6.78906C79.2535 7.72135 79.4922 8.80729 79.4922 10.0469C79.4922 11.2865 79.2535 12.3698 78.7762 13.2969C78.3041 14.224 77.6353 14.9453 76.7698 15.4609C75.9044 15.9766 74.8815 16.2344 73.7013 16.2344ZM73.717 13.9688C74.357 13.9688 74.892 13.7943 75.3221 13.4453C75.7523 13.0911 76.0722 12.6172 76.282 12.0234C76.4971 11.4297 76.6046 10.7682 76.6046 10.0391C76.6046 9.30469 76.4971 8.64062 76.282 8.04688C76.0722 7.44792 75.7523 6.97135 75.3221 6.61719C74.892 6.26302 74.357 6.08594 73.717 6.08594C73.0614 6.08594 72.5159 6.26302 72.0805 6.61719C71.6504 6.97135 71.3278 7.44792 71.1127 8.04688C70.9029 8.64062 70.798 9.30469 70.798 10.0391C70.798 10.7682 70.9029 11.4297 71.1127 12.0234C71.3278 12.6172 71.6504 13.0911 72.0805 13.4453C72.5159 13.7943 73.0614 13.9688 73.717 13.9688Z" fill="white"/>
  <path d="M81.9096 16V4H84.632V6.03906H84.7736C85.0254 5.35156 85.4424 4.8151 86.0246 4.42969C86.6069 4.03906 87.3019 3.84375 88.1097 3.84375C88.9279 3.84375 89.6177 4.04167 90.1789 4.4375C90.7454 4.82812 91.1441 5.36198 91.3749 6.03906H91.5008C91.7683 5.3724 92.2194 4.84115 92.8541 4.44531C93.494 4.04427 94.252 3.84375 95.1279 3.84375C96.24 3.84375 97.1474 4.19271 97.8503 4.89062C98.5532 5.58854 98.9046 6.60677 98.9046 7.94531V16H96.0485V8.38281C96.0485 7.63802 95.8492 7.09375 95.4505 6.75C95.0519 6.40104 94.5641 6.22656 93.9871 6.22656C93.2999 6.22656 92.7623 6.4401 92.3741 6.86719C91.9912 7.28906 91.7998 7.83854 91.7998 8.51562V16H89.0066V8.26562C89.0066 7.64583 88.8178 7.15104 88.4401 6.78125C88.0677 6.41146 87.5799 6.22656 86.9767 6.22656C86.5675 6.22656 86.1951 6.33073 85.8594 6.53906C85.5237 6.74219 85.2562 7.03125 85.0569 7.40625C84.8575 7.77604 84.7579 8.20833 84.7579 8.70312V16H81.9096Z" fill="white"/>
  <path d="M24.6584 23V45.8571H20.4884V23H24.6584Z" fill="#166F1F"/>
  <path d="M28.1625 26.471V23H46.5288V26.471H39.4138V45.8571H35.2775V26.471H28.1625Z" fill="#166F1F"/>
  <path d="M52.5961 36.4286V38.1473H47.1374V36.4286H52.5961ZM48.4851 34.1696H50.723V43.0212C50.723 43.3199 50.7683 43.5491 50.859 43.7087C50.9538 43.8642 51.0774 43.9706 51.2299 44.0279C51.3824 44.0852 51.5514 44.1138 51.7368 44.1138C51.877 44.1138 52.0047 44.1036 52.1201 44.0831C52.2396 44.0627 52.3303 44.0443 52.3921 44.0279L52.7692 45.7651C52.6497 45.806 52.4787 45.851 52.2561 45.9001C52.0377 45.9492 51.7698 45.9779 51.4525 45.986C50.892 46.0024 50.3871 45.9185 49.9379 45.7344C49.4886 45.5461 49.1321 45.2556 48.8684 44.8627C48.6087 44.4699 48.481 43.9788 48.4851 43.3895V34.1696Z" fill="white"/>
  <path d="M56.9097 40.3326V45.8571H54.6718V33.2857H56.8602V38.0307H56.9715C57.194 37.4987 57.5382 37.0792 58.0039 36.7723C58.4737 36.4613 59.0713 36.3058 59.7967 36.3058C60.4561 36.3058 61.031 36.4429 61.5215 36.7171C62.0119 36.9913 62.3911 37.3923 62.6589 37.9202C62.931 38.4481 63.067 39.0926 63.067 39.8538V45.8571H60.8291V40.1975C60.8291 39.5632 60.6642 39.0701 60.3345 38.7182C60.0089 38.3622 59.5514 38.1842 58.9621 38.1842C58.5664 38.1842 58.212 38.2701 57.8988 38.442C57.5897 38.6097 57.3465 38.8532 57.1693 39.1724C56.9962 39.4916 56.9097 39.8783 56.9097 40.3326Z" fill="white"/>
  <path d="M69.5519 46.0413C68.5999 46.0413 67.7777 45.8449 67.0853 45.452C66.397 45.0551 65.8674 44.4944 65.4965 43.7701C65.1256 43.0417 64.9401 42.1843 64.9401 41.1981C64.9401 40.2282 65.1256 39.377 65.4965 38.6445C65.8715 37.9079 66.3949 37.335 67.0667 36.9258C67.7385 36.5125 68.5277 36.3058 69.4344 36.3058C70.0197 36.3058 70.5719 36.3999 71.0912 36.5882C71.6146 36.7723 72.0762 37.0588 72.476 37.4475C72.8799 37.8363 73.1972 38.3315 73.428 38.933C73.6588 39.5305 73.7742 40.2426 73.7742 41.0692V41.7506H65.9911V40.2528H71.6291C71.6249 39.8272 71.5322 39.4487 71.3509 39.1172C71.1695 38.7816 70.9161 38.5177 70.5905 38.3253C70.269 38.133 69.894 38.0368 69.4654 38.0368C69.0079 38.0368 68.6061 38.1473 68.2599 38.3683C67.9137 38.5852 67.6437 38.8717 67.45 39.2277C67.2604 39.5796 67.1636 39.9663 67.1595 40.3878V41.6953C67.1595 42.2437 67.2604 42.7143 67.4624 43.1071C67.6643 43.4959 67.9466 43.7946 68.3093 44.0033C68.672 44.208 69.0965 44.3103 69.5828 44.3103C69.9084 44.3103 70.2031 44.2653 70.4668 44.1752C70.7306 44.0811 70.9594 43.944 71.1531 43.764C71.3468 43.5839 71.4931 43.3609 71.592 43.0949L73.6815 43.3281C73.5496 43.8765 73.2982 44.3553 72.9273 44.7645C72.5605 45.1696 72.0907 45.4847 71.5178 45.7098C70.9449 45.9308 70.2896 46.0413 69.5519 46.0413Z" fill="white"/>
  <path d="M75.6675 45.8571V36.4286H77.8065V38.0307H77.9177C78.1156 37.4905 78.4432 37.069 78.9007 36.7662C79.3582 36.4593 79.9042 36.3058 80.5389 36.3058C81.1818 36.3058 81.7238 36.4613 82.1648 36.7723C82.6099 37.0792 82.9231 37.4987 83.1045 38.0307H83.2034C83.4136 37.5069 83.768 37.0895 84.2667 36.7785C84.7695 36.4634 85.365 36.3058 86.0533 36.3058C86.927 36.3058 87.64 36.58 88.1923 37.1283C88.7445 37.6767 89.0207 38.4767 89.0207 39.5285V45.8571H86.7766V39.8722C86.7766 39.287 86.62 38.8594 86.3067 38.5893C85.9935 38.3151 85.6102 38.178 85.1569 38.178C84.617 38.178 84.1946 38.3458 83.8896 38.6814C83.5887 39.0128 83.4383 39.4446 83.4383 39.9766V45.8571H81.2437V39.7801C81.2437 39.2932 81.0953 38.9044 80.7986 38.6138C80.5059 38.3233 80.1227 38.178 79.6487 38.178C79.3272 38.178 79.0346 38.2599 78.7709 38.4235C78.5071 38.5831 78.2969 38.8103 78.1403 39.1049C77.9837 39.3955 77.9054 39.7351 77.9054 40.1239V45.8571H75.6675Z" fill="white"/>
  <path d="M98.796 38.9208L96.7559 39.1417C96.6982 38.9371 96.5973 38.7448 96.453 38.5647C96.3129 38.3847 96.1233 38.2394 95.8843 38.1289C95.6452 38.0184 95.3526 37.9632 95.0064 37.9632C94.5407 37.9632 94.1492 38.0634 93.8318 38.264C93.5186 38.4645 93.3641 38.7243 93.3682 39.0435C93.3641 39.3177 93.465 39.5407 93.6711 39.7126C93.8813 39.8845 94.2275 40.0257 94.7097 40.1362L96.3294 40.4799C97.2278 40.6722 97.8955 40.9771 98.3323 41.3945C98.7733 41.8119 98.9959 42.3583 99 43.0335C98.9959 43.6269 98.8207 44.1507 98.4745 44.6049C98.1325 45.0551 97.6564 45.407 97.0465 45.6607C96.4365 45.9144 95.7359 46.0413 94.9446 46.0413C93.7824 46.0413 92.8468 45.7999 92.1379 45.317C91.4291 44.83 91.0066 44.1527 90.8706 43.2852L93.0529 43.0765C93.1518 43.502 93.362 43.8233 93.6835 44.0402C94.0049 44.2571 94.4232 44.3655 94.9384 44.3655C95.4701 44.3655 95.8966 44.2571 96.2181 44.0402C96.5437 43.8233 96.7065 43.5552 96.7065 43.236C96.7065 42.966 96.6014 42.7429 96.3912 42.567C96.1851 42.391 95.8637 42.256 95.4268 42.1618L93.8071 41.8242C92.8963 41.636 92.2224 41.3188 91.7856 40.8728C91.3487 40.4226 91.1323 39.8538 91.1365 39.1663C91.1323 38.5852 91.291 38.0818 91.6125 37.6562C91.9381 37.2266 92.3894 36.8951 92.9663 36.6618C93.5474 36.4245 94.2172 36.3058 94.9755 36.3058C96.0883 36.3058 96.9641 36.5411 97.6029 37.0117C98.2458 37.4823 98.6435 38.1187 98.796 38.9208Z" fill="white"/>
  <path d="M0 25.7679V22.5179C2.02621 22.5179 3.42297 22.119 4.19029 21.3214C4.9696 20.5238 5.35926 19.131 5.35926 17.1429V10.2143C5.35926 8.69048 5.50912 7.36905 5.80886 6.25C6.10859 5.11905 6.58817 4.19047 7.24759 3.46428C7.907 2.72619 8.77024 2.17857 9.83729 1.82143C10.9163 1.46428 12.2292 1.28571 13.7758 1.28571V4C12.433 4 11.3599 4.22024 10.5567 4.66071C9.76536 5.08929 9.19586 5.76191 8.84817 6.67857C8.51247 7.59524 8.34462 8.77381 8.34462 10.2143V18.0893C8.34462 19.1012 8.22472 20 7.98493 20.7857C7.74515 21.5595 7.31952 22.2143 6.70806 22.75C6.09661 23.2857 5.20939 25.494 4.11836 25.7679C3.03931 26.0417 1.6905 25.7679 0 25.7679ZM13.7758 47C12.2292 47 10.9163 46.8214 9.83729 46.4643C8.77024 46.1071 7.907 45.5595 7.24759 44.8214C6.58817 44.0952 6.10859 43.1667 5.80886 42.0357C5.50912 40.9167 5.35926 39.5952 5.35926 38.0714V31.1429C5.35926 29.1548 4.9696 27.7619 4.19029 26.9643C3.42297 26.1667 2.02621 25.7679 0 25.7679V22.5179C1.6905 22.5179 3.03931 22.244 4.11836 22.5179C5.20939 22.7917 6.09661 25 6.70806 25.5357C7.31952 26.0714 7.74515 26.7321 7.98493 27.5179C8.22472 28.2917 8.34462 29.1845 8.34462 30.1964V38.0714C8.34462 39.5119 8.51247 40.6845 8.84817 41.5893C9.19586 42.506 9.76536 43.1845 10.5567 43.625C11.3599 44.0655 12.433 44.2857 13.7758 44.2857V47ZM0 25.7679V22.5179H4.11836V25.7679H0Z" fill="white"/>
</svg>